<?xml version="1.0" encoding="utf-8"?>
<svg xmlns="http://www.w3.org/2000/svg" height="32" width="32" viewBox="0 0 32 32">
  <g>
    <ellipse cy="16" cx="16" stroke-width="1.75" ry="15.125" rx="15.125" stroke="#4B4646" fill="transparent" />
    <path id="path1" transform="rotate(0,16,16) translate(5.23749983310699,2) scale(0.875,0.875)  " fill="#4B4646" d="M12.999997,13.799988C11.999997,13.799988 11.100003,14.100006 10.19998,14.699982 8.2999858,16.199982 7.999998,18.899994 9.499998,20.799988 10.999997,22.699982 13.699979,23 15.600002,21.5 17.499995,20 17.799983,17.299988 16.299985,15.399994 15.499996,14.399994 14.299985,13.799988 12.999997,13.799988z M13.100003,10.799988C15.199978,10.799988 17.299983,11.799988 18.699977,13.600006 20.800013,16.199982 20.699977,19.799988 18.899989,22.399994L24.600001,29.600006 21.399989,32 15.799984,24.799988C12.799985,26.100006 9.2999858,25.299988 7.1999802,22.600006 4.6999806,19.399994 5.2999867,14.899994 8.3999919,12.399994 9.7999858,11.299988 11.499997,10.799988 13.100003,10.799988z M8.7999858,0L17.999995,0C19.499995,0,20.699977,1.1999817,20.699977,2.6999817L20.699977,12.399994C20.100001,11.799988,19.499995,11.199982,18.699977,10.799988L18.499995,10.699982 18.499995,2.6999817C18.499995,2.3999939,18.299983,2.1999817,17.999995,2.1999817L8.999998,2.1999817 8.7999858,6.8999939C8.7999858,6.8999939,8.6000041,10,5.1999806,9.6999817L2.1999811,9.6000061 2.1999811,23.100006C2.1999814,23.399994,2.3999933,23.600006,2.6999811,23.600006L4.7999867,23.600006 4.8999928,23.699982C5.3999928,24.399994,6.1000046,25.100006,6.7999863,25.699982L6.8999924,25.799988 2.6999811,25.799988C1.1999815,25.799988,9.3376002E-08,24.600006,0,23.100006L0,9.2999878 1.1000061,8.1999817 6.6999802,2.2999878 5.1999806,3.7999878 6.7999863,2.1000061 6.7999863,2z" />
  </g>
</svg>

