<?xml version="1.0" encoding="utf-8"?>
<svg xmlns="http://www.w3.org/2000/svg" height="128" width="128" viewBox="0 0 128 128">
  <g>
    <path id="path1" transform="rotate(0,64,64) translate(12.9500122070313,0) scale(4,4)  " fill="#65645B" d="M23.526203,24.223999C25.720223,24.223999 25.520239,26.117996 25.520239,26.117996 25.121218,28.510986 22.230202,27.015991 22.230202,27.015991 21.832188,25.519989 22.330208,24.32399 22.330208,24.32399 22.829205,24.223999 23.227219,24.223999 23.526203,24.223999z M2.0930352,24.223999C2.3920185,24.223999 2.7910394,24.223999 3.1900296,24.32399 3.1900296,24.32399 3.7880573,25.42099 3.2900367,27.015991 3.2900367,27.015991 0.39902054,28.510986 0,26.117996 0.10000674,26.117996 -0.099976661,24.223999 2.0930352,24.223999z M1.5950146,18.342987C1.5950147,18.342987 11.065097,20.435989 12.860126,21.133987 14.654147,20.435989 24.125206,18.342987 24.125206,18.342987L23.925223,23.326996 23.526203,23.326996C23.12822,23.326996,22.629193,23.426987,22.031195,23.526001L21.732212,23.625992 21.632204,23.924988C21.632204,24.024994,20.835201,25.519989,21.433197,27.513992L21.533205,27.812988 21.832188,27.912994C21.832188,27.912994,22.729199,28.410995,23.726217,28.510986L23.726217,29.40799 14.05612,31.102997C13.956144,31.600998,13.55813,32,13.059133,32L12.760119,32C12.262129,32,11.863108,31.600998,11.763101,31.102997L2.0930352,29.307999 2.0930352,28.410995C3.0900225,28.311996,3.9870336,27.812988,3.9870333,27.812988L4.2870543,27.712997 4.3860543,27.414001C4.9840514,25.42099,4.1870472,23.825989,4.1870472,23.825989L4.0870406,23.526001 3.7880573,23.426987C3.2900367,23.326996,2.7910394,23.22699,2.2930188,23.22699L1.8940286,23.22699z M9.1710989,12.759995C9.1710989,12.759995,9.7690956,16.149994,12.461106,16.049988L12.561113,16.049988C15.252145,16.149994,15.751142,12.759995,15.751142,12.759995L20.43618,14.25499C21.533205,14.753998 22.031195,15.949997 22.230202,17.046997 18.841166,17.843994 14.554141,18.840988 12.959126,19.438995 11.165104,18.840988 6.3800595,17.644989 2.891046,16.847 3.0900225,15.849991 3.5890503,14.753998 4.5860379,14.25499z M12.461106,0C13.65713,0 15.153145,0.4980011 15.651135,1.1959991 16.050156,1.6949921 16.349138,2.7910004 16.349138,2.7910004 16.349138,2.7910004 17.146143,2.9909973 17.346157,3.4889984 17.64517,4.2869873 17.047142,5.9809875 16.947167,6.0809937L16.648154,6.3799896 16.648154,6.6790009C17.944155,7.776001 16.149155,9.17099 16.149155,9.17099 15.751142,10.567001 15.153145,11.064987 15.153145,11.064987 14.455141,13.258987 12.461106,12.759995 12.461106,12.759995 12.361129,12.759995 10.4671,13.05899 9.8691027,11.064987 9.8691027,11.064987 9.3710825,10.567001 8.8720848,9.17099 8.8720848,9.17099 7.0780632,7.6759949 8.3740952,6.6790009 8.3740952,6.6790009 8.3740952,6.4799957 8.2740881,6.1809998 8.2740881,5.9809875 8.1740811,5.6819916 8.0750811,5.4829865 6.9780567,1.6949921 9.8691027,0 12.461106,0z" />
  </g>
</svg>

