<?xml version="1.0" encoding="utf-8"?>
<svg xmlns="http://www.w3.org/2000/svg" height="128" width="128" viewBox="0 0 128 128">
  <g>
    <path id="path1" transform="rotate(0,64,64) translate(0,8.59999847412109) scale(4,4)  " fill="#65645B" d="M27.900009,7.600003L30.199997,8.001004 29.199997,11.501002C29.400009,11.799983 29.600006,12.200007 29.699997,12.700007 29.699997,12.700007 29.900009,14.299982 27.699997,15.501001 27.699997,15.501001 21.5,19.399985 15.900009,21.200003L15.900009,21.500998 15.900009,27.700001 0,27.700001 0,21.500998C0,18.299981,2.5,15.6,5.6000061,15.299982L5.9000092,15.299982 6.1000061,15.299982C7.3000031,15.1 9,14.899988 11.100006,15.001001 11.100006,15.001001 17.400009,14.6 25.699997,10.600002 25.699997,10.600002 26.199997,10.39999 26.800003,10.299984L26.900009,10.299984z M17.400009,4.2999861L28.5,4.2999861 28.5,5.7000101 17.400009,5.7000101z M9.3000031,2.5010066C12.300003,2.5010064 14.699997,4.8999922 14.699997,7.8999908 14.699997,10.89999 12.300003,13.299983 9.3000031,13.299983 6.3000031,13.299983 3.9000092,10.89999 3.9000092,7.8999908 3.8000031,4.8999922 6.3000031,2.5010064 9.3000031,2.5010066z M17.400009,0L32,0 32,1.3999934 17.400009,1.3999934z" />
  </g>
</svg>

